<?xml version="1.0" encoding="UTF-8"?>
<svg width="512px" height="512px" viewBox="0 0 512 512" version="1.1" xmlns="http://www.w3.org/2000/svg" xmlns:xlink="http://www.w3.org/1999/xlink">
    <title>Group 2</title>
    <g id="Page-1" stroke="none" stroke-width="1" fill="none" fill-rule="evenodd">
        <g id="Group-2">
            <circle id="Oval" fill="#F1F5F9" cx="256" cy="256" r="256"></circle>
            <g id="man" transform="translate(142.914454, 88.542773)" fill="#8B5CF6" fill-rule="nonzero">
                <path d="M225.982301,296.362891 L225.982301,329.332438 C225.982301,332.414721 223.483933,334.913757 220.402474,334.913757 C217.321014,334.913757 214.822647,332.414721 214.822647,329.332438 L214.822647,296.362891 C214.822647,270.692314 194.055228,249.918646 168.389418,249.918646 C156.245622,249.918646 145.226858,243.730359 138.915376,233.363758 C137.311873,230.731468 138.146057,227.297562 140.778341,225.694328 C143.408532,224.089002 146.842218,224.924106 148.445721,227.557791 C152.715683,234.57002 160.171727,238.756009 168.389418,238.756009 C200.220937,238.754614 225.982301,264.520771 225.982301,296.362891 Z M121.970836,236.150231 C110.290165,238.696708 98.4344277,236.112557 89.0289316,229.652878 C90.6421991,226.08223 91.6333159,222.24019 91.9478787,218.259314 C139.776064,232.341679 187.620989,196.234036 187.620989,146.63495 C187.620989,99.2983919 187.67888,100.05187 187.487074,98.1109664 C186.752629,90.4178164 175.639706,91.4643136 176.381125,99.2056025 C176.505974,100.471167 176.461335,101.578361 176.461335,146.634253 C176.461335,181.641678 147.988872,210.121752 112.990802,210.121752 C77.992731,210.121752 49.5202682,181.641678 49.5202682,146.634253 C49.5202682,134.060937 49.3863524,124.324327 49.3424112,117.023264 C49.2294197,98.7060745 66.1634976,84.7876612 84.4883473,89.1815543 C110.332712,95.3803063 120.748854,111.504736 153.874892,109.961501 C156.952865,109.817085 159.331266,107.20433 159.186888,104.124837 C159.04251,101.046042 156.446495,98.6830516 153.351784,98.8114219 C123.488549,100.215821 115.210875,85.0730062 87.0906392,78.327285 C61.6661569,72.2269037 38.0272193,91.57594 38.182757,117.092333 C38.2204208,123.02667 38.2985384,129.526116 38.3375972,137.531122 C34.6228273,135.593707 32.082611,131.750969 32.082611,127.330565 C32.082611,127.202892 32.0833085,98.3398005 32.081216,98.2128255 C31.8015272,85.5620692 33.6031139,53.7743668 56.32138,31.8690866 C81.7033161,7.39639988 121.415643,7.38733024 152.293012,18.1529962 L147.832637,19.98925 C142.50739,22.1806152 143.620565,30.08446 149.362207,30.6998004 L159.170148,31.7504836 C178.046704,33.7723163 194.740151,43.6184599 205.435285,58.9182495 C198.415862,67.4499927 194.595076,78.0698466 194.595076,89.2582974 L194.595076,127.329867 C194.595076,130.41215 197.093443,132.911186 200.174903,132.911186 C203.256363,132.911186 205.75473,130.41215 205.75473,127.329867 L205.75473,89.2582974 C205.75473,79.5586634 209.499492,70.4164635 216.299208,63.5172561 C218.192165,61.5986778 218.424425,58.5024413 217.104098,56.3710753 C205.979318,38.5255067 189.425366,27.034967 170.532769,22.4261932 C173.589119,19.8183221 172.987893,14.9730399 169.450282,13.1835296 C153.229028,4.9880609 130.089484,-0.764883242 108.068697,0.08277952 C52.3597027,2.24274982 19.7491006,43.8584566 20.9243517,98.3977066 L20.9243517,127.331262 C20.9243517,138.009022 28.3929503,146.982387 38.4178072,149.392122 C39.4577475,177.899404 56.5515479,202.377672 80.9074932,214.026582 L80.9074932,215.495166 C80.9074932,228.362896 70.4836787,238.756707 57.5928831,238.756707 C25.6951039,238.756707 0,264.584956 0,296.363589 L0,329.333136 C0,332.415419 2.49836759,334.914454 5.57982712,334.914454 C8.66128665,334.914454 11.1596542,332.415419 11.1596542,329.333136 L11.1596542,296.363589 C11.1596542,270.694407 31.9270733,249.919344 57.5928831,249.919344 C67.0946312,249.919344 76.1430184,246.110094 82.836021,238.935309 C94.7315149,247.056825 109.667317,250.257711 124.347145,247.057523 C127.358159,246.401718 129.267157,243.427573 128.61083,240.415754 C127.954503,237.403237 124.979758,235.491635 121.970836,236.150231 L121.970836,236.150231 Z M169.486551,306.309499 L152.74707,306.309499 C149.66561,306.309499 147.167243,308.808534 147.167243,311.890817 C147.167243,314.973101 149.66561,317.472136 152.74707,317.472136 L169.486551,317.472136 C172.568011,317.472136 175.066378,314.973101 175.066378,311.890817 C175.066378,308.808534 172.568011,306.309499 169.486551,306.309499 Z" id="Shape"></path>
            </g>
        </g>
    </g>
</svg>